<svg width="67" height="67" viewBox="0 0 67 67" fill="none" xmlns="http://www.w3.org/2000/svg">
<path fill-rule="evenodd" clip-rule="evenodd" d="M11 0C4.92487 0 0 4.92487 0 11V56C0 62.0751 4.92487 67 11 67H56C62.0751 67 67 62.0751 67 56V11C67 4.92487 62.0751 0 56 0H11ZM31 11.4998C31 10.1191 32.1193 8.99979 33.5 8.99979C34.8807 8.99979 36 10.1191 36 11.4998V55.4998C36 56.8805 34.8807 57.9998 33.5 57.9998C32.1193 57.9998 31 56.8805 31 55.4998V11.4998ZM23.5 14.9998C22.1193 14.9998 21 16.1191 21 17.4998V49.4998C21 50.8805 22.1193 51.9998 23.5 51.9998C24.8807 51.9998 26 50.8805 26 49.4998V17.4998C26 16.1191 24.8807 14.9998 23.5 14.9998ZM13.5 22.9998C12.1193 22.9998 11 24.1191 11 25.4998V42.4998C11 43.8805 12.1193 44.9998 13.5 44.9998C14.8807 44.9998 16 43.8805 16 42.4998V25.4998C16 24.1191 14.8807 22.9998 13.5 22.9998ZM43.5 14.9998C42.1193 14.9998 41 16.1191 41 17.4998V49.4998C41 50.8805 42.1193 51.9998 43.5 51.9998C44.8807 51.9998 46 50.8805 46 49.4998V17.4998C46 16.1191 44.8807 14.9998 43.5 14.9998ZM51 25.4998C51 24.1191 52.1193 22.9998 53.5 22.9998C54.8807 22.9998 56 24.1191 56 25.4998V42.4998C56 43.8805 54.8807 44.9998 53.5 44.9998C52.1193 44.9998 51 43.8805 51 42.4998V25.4998Z" fill="#297FFF"/>
</svg>
