<svg width="330" height="67" viewBox="0 0 330 67" fill="none" xmlns="http://www.w3.org/2000/svg">
<path d="M100.358 51C104.017 51 107.619 49.5021 109.726 46.6172V50.3897H116.654V20.9861H109.726V24.7587C107.619 21.8738 104.017 20.3759 100.358 20.3759C93.208 20.3759 87 26.2011 87 35.6879C87 45.2302 93.2634 51 100.358 51ZM94.2611 35.6879C94.2611 29.0305 97.9749 25.9237 102.132 25.9237C106.234 25.9237 109.947 29.0305 109.947 35.6879C109.947 42.3454 106.234 45.4521 102.132 45.4521C97.9749 45.4521 94.2611 42.3454 94.2611 35.6879Z" fill="#297FFF"/>
<path d="M140.089 34.8558V34.19L148.902 21.3745V20.9861H141.087L134.158 31.638H129.391V11H122.296V50.3897H129.391V37.4632H134.158L141.087 50.3897H148.847V50.0014L140.089 34.8558Z" fill="#297FFF"/>
<path d="M164.213 51C171.031 51 176.407 47.172 178.125 41.0693H170.753C169.7 43.8433 167.372 45.6186 164.213 45.6186C160 45.6186 157.118 42.3454 156.508 37.5187H178.957C179.677 26.8114 173.026 20.3759 164.213 20.3759C155.566 20.3759 149.413 26.7004 149.413 35.6879C149.413 44.7309 155.4 51 164.213 51ZM156.675 32.6366C157.506 28.4757 160.167 25.5354 164.213 25.5354C168.259 25.5354 171.031 28.3648 171.807 32.6366H156.675Z" fill="#297FFF"/>
<path d="M183.248 50.3897H190.343V32.2483C190.343 27.8655 192.616 25.9237 196.329 25.9237C199.988 25.9237 202.26 27.8655 202.26 32.2483V50.3897H209.355V31.8044C209.355 24.2594 204.699 20.3759 198.713 20.3759C194.833 20.3759 192.339 21.7074 190.288 24.4258H190.011V20.9861H183.248V50.3897Z" fill="#297FFF"/>
<path d="M213.287 50.3897H237.565V44.62H221.879L237.343 25.9792V20.9861H213.786V26.7559H228.641L213.287 45.3967V50.3897Z" fill="#297FFF"/>
<path d="M253.144 51C256.802 51 260.405 49.5021 262.512 46.6172V50.3897H269.44V20.9861H262.512V24.7587C260.405 21.8738 256.802 20.3759 253.144 20.3759C245.994 20.3759 239.786 26.2011 239.786 35.6879C239.786 45.2302 246.049 51 253.144 51ZM247.047 35.6879C247.047 29.0305 250.761 25.9237 254.918 25.9237C259.02 25.9237 262.733 29.0305 262.733 35.6879C262.733 42.3454 259.02 45.4521 254.918 45.4521C250.761 45.4521 247.047 42.3454 247.047 35.6879Z" fill="#297FFF"/>
<path d="M275.082 50.3897H282.177V43.5104H275.082V50.3897Z" fill="#297FFF"/>
<path d="M287.831 50.3897H294.926V20.9861H287.831V50.3897ZM287.831 17.4355H294.926V11H287.831V17.4355Z" fill="#297FFF"/>
<path d="M314.27 51C322.363 51 329.236 45.5076 329.236 35.6879C329.236 25.8682 322.363 20.3759 314.27 20.3759C306.178 20.3759 299.304 25.8682 299.304 35.6879C299.304 45.5076 306.178 51 314.27 51ZM306.399 35.6879C306.399 29.0305 310.113 25.9237 314.27 25.9237C318.372 25.9237 322.086 29.0305 322.086 35.6879C322.086 42.3454 318.372 45.4521 314.27 45.4521C310.113 45.4521 306.399 42.3454 306.399 35.6879Z" fill="#297FFF"/>
<path fill-rule="evenodd" clip-rule="evenodd" d="M11 0.000244141C4.92487 0.000244141 0 4.92511 0 11.0002V56.0002C0 62.0754 4.92487 67.0002 11 67.0002H56C62.0751 67.0002 67 62.0754 67 56.0002V11.0002C67 4.92511 62.0751 0.000244141 56 0.000244141H11ZM31 11.5C31 10.1193 32.1193 9.00004 33.5 9.00004C34.8807 9.00004 36 10.1193 36 11.5V55.5C36 56.8808 34.8807 58 33.5 58C32.1193 58 31 56.8807 31 55.5V11.5ZM23.5 15C22.1193 15 21 16.1193 21 17.5V49.5C21 50.8807 22.1193 52 23.5 52C24.8807 52 26 50.8807 26 49.5V17.5C26 16.1193 24.8807 15 23.5 15ZM13.5 23C12.1193 23 11 24.1193 11 25.5V42.5C11 43.8807 12.1193 45 13.5 45C14.8807 45 16 43.8807 16 42.5V25.5C16 24.1193 14.8807 23 13.5 23ZM43.5 15C42.1193 15 41 16.1193 41 17.5V49.5C41 50.8807 42.1193 52 43.5 52C44.8807 52 46 50.8807 46 49.5V17.5C46 16.1193 44.8807 15 43.5 15ZM51 25.5C51 24.1193 52.1193 23 53.5 23C54.8807 23 56 24.1193 56 25.5V42.5C56 43.8807 54.8807 45 53.5 45C52.1193 45 51 43.8807 51 42.5V25.5Z" fill="#297FFF"/>
</svg>
