<svg width="200" height="44" viewBox="0 0 200 44" fill="none" xmlns="http://www.w3.org/2000/svg">
<path d="M66.8111 14.6306V15.7852H66.7432C65.7584 14.7325 64.2302 14.1213 62.4644 14.1213C57.6762 14.1213 54.2803 18.0265 54.2803 23.6297C54.2803 29.233 57.6762 33.1382 62.4644 33.1382C64.2302 33.1382 65.7584 32.527 66.7432 31.4743H66.8111V32.6289H71.4974V14.6306H66.8111ZM63.0077 28.6896C60.6306 28.6896 59.1364 26.8219 59.1364 23.6297C59.1364 20.4376 60.6306 18.5699 63.0417 18.5699C65.1811 18.5699 66.6413 19.9961 66.6413 22.1695V25.09C66.6413 27.2634 65.1811 28.6896 63.0077 28.6896Z" fill="#191A21"/>
<path d="M74.212 32.6289H79.0681V27.8407L81.4453 25.056H81.5132L85.792 32.6289H91.2594L84.6034 21.8299L91.0896 14.6306H84.9091L79.1361 21.4224H79.0681V7.83887H74.212V32.6289Z" fill="#191A21"/>
<path d="M98.7821 33.1382C102.178 33.1382 104.827 31.7799 106.559 29.0632L103.129 26.3804C101.872 28.2142 100.548 29.0632 98.7821 29.0632C96.5747 29.0632 95.2164 27.6029 95.0805 25.056H107.136V23.6297C107.136 17.9586 103.706 14.1213 98.6802 14.1213C93.6882 14.1213 90.1905 18.0265 90.1905 23.6297C90.1905 29.3348 93.6882 33.1382 98.7821 33.1382ZM95.0805 21.6262C95.2503 19.5547 96.7106 18.1963 98.7141 18.1963C100.921 18.1963 102.246 19.4528 102.416 21.6262H95.0805Z" fill="#191A21"/>
<path d="M109.127 32.6289H113.983V21.9658C113.983 19.8943 115.206 18.6038 117.243 18.6038C119.349 18.6038 120.504 19.8264 120.504 21.9658V32.6289H125.36V21.1168C125.36 16.838 122.711 14.1213 118.772 14.1213C116.768 14.1213 114.866 14.9363 113.814 16.2267H113.746V14.6306H109.127V32.6289Z" fill="#191A21"/>
<path d="M127.066 32.6289H143.468V28.2142H133.858V28.1463L143.027 18.468V14.6306H127.304V19.0453H136.235V19.1132L127.066 28.7915V32.6289Z" fill="#191A21"/>
<path d="M157.127 14.6306V15.7852H157.059C156.074 14.7325 154.546 14.1213 152.78 14.1213C147.992 14.1213 144.596 18.0265 144.596 23.6297C144.596 29.233 147.992 33.1382 152.78 33.1382C154.546 33.1382 156.074 32.527 157.059 31.4743H157.127V32.6289H161.813V14.6306H157.127ZM153.324 28.6896C150.947 28.6896 149.452 26.8219 149.452 23.6297C149.452 20.4376 150.947 18.5699 153.358 18.5699C155.497 18.5699 156.957 19.9961 156.957 22.1695V25.09C156.957 27.2634 155.497 28.6896 153.324 28.6896Z" fill="#191A21"/>
<path d="M165.513 32.6288H170.946V27.3651H165.513V32.6288Z" fill="#E02B10"/>
<path d="M174.592 11.6761H179.516V6.92188H174.592V11.6761ZM174.66 32.6288H179.516V14.6305H174.66V32.6288Z" fill="#E02B10"/>
<path d="M191.068 33.1381C196.366 33.1381 200 29.3008 200 23.6296C200 17.9585 196.366 14.1212 191.068 14.1212C185.805 14.1212 182.171 17.9585 182.171 23.6296C182.171 29.3008 185.805 33.1381 191.068 33.1381ZM191.068 28.7235C188.521 28.7235 187.027 26.8557 187.027 23.6296C187.027 20.4036 188.521 18.5358 191.068 18.5358C193.649 18.5358 195.143 20.4036 195.143 23.6296C195.143 26.8557 193.649 28.7235 191.068 28.7235Z" fill="#E02B10"/>
<path fill-rule="evenodd" clip-rule="evenodd" d="M1.92138 9.9008C2.98253 9.9008 3.84276 10.7191 3.84276 11.7286V31.9872C3.84276 32.9967 2.98253 33.815 1.92138 33.815C0.860232 33.815 0 32.9967 0 31.9872V11.7286C0 10.7191 0.860232 9.9008 1.92138 9.9008Z" fill="#E02B10"/>
<path fill-rule="evenodd" clip-rule="evenodd" d="M10.8876 4.72192C11.9488 4.72192 12.809 5.54027 12.809 6.54976V37.1661C12.809 38.1756 11.9488 38.9939 10.8876 38.9939C9.82646 38.9939 8.96622 38.1756 8.96622 37.1661V6.54976C8.96622 5.54027 9.82646 4.72192 10.8876 4.72192Z" fill="#E02B10"/>
<path fill-rule="evenodd" clip-rule="evenodd" d="M19.8543 0C20.9154 0 21.7757 0.818352 21.7757 1.82784V41.888C21.7757 42.8975 20.9154 43.7158 19.8543 43.7158C18.7931 43.7158 17.9329 42.8975 17.9329 41.888V1.82784C17.9329 0.818352 18.7931 0 19.8543 0Z" fill="#E02B10"/>
<path fill-rule="evenodd" clip-rule="evenodd" d="M28.8205 4.72192C29.8817 4.72192 30.7419 5.54027 30.7419 6.54976V37.1661C30.7419 38.1756 29.8817 38.9939 28.8205 38.9939C27.7594 38.9939 26.8991 38.1756 26.8991 37.1661V6.54976C26.8991 5.54027 27.7594 4.72192 28.8205 4.72192Z" fill="#E02B10"/>
<path fill-rule="evenodd" clip-rule="evenodd" d="M37.7872 9.9008C38.8483 9.9008 39.7086 10.7191 39.7086 11.7286V31.9872C39.7086 32.9967 38.8483 33.815 37.7872 33.815C36.726 33.815 35.8658 32.9967 35.8658 31.9872V11.7286C35.8658 10.7191 36.726 9.9008 37.7872 9.9008Z" fill="#E02B10"/>
</svg>
