<svg width="600" height="214" viewBox="0 0 600 214" fill="none" xmlns="http://www.w3.org/2000/svg">
<rect width="600" height="214" rx="16" fill="white"/>
<path d="M265.325 118.411L257.459 95.3825H257.364L249.499 118.411H265.325ZM269.4 130.067H245.519L242.202 139.828H229.124L251.394 77.377H263.524L285.889 139.828H272.811L269.4 130.067Z" fill="black"/>
<path d="M287.878 74.6292H300.672V110.356H300.767L316.024 92.4451H332.229L315.171 111.398L332.703 139.828H318.298L307.021 119.832H306.832L300.672 127.224V139.828H287.878V74.6292Z" fill="black"/>
<path d="M362.838 110.829C362.364 105.144 358.953 101.827 353.077 101.827C347.77 101.827 343.98 105.428 343.506 110.829H362.838ZM330.712 116.136C330.712 101.448 339.905 91.1182 352.982 91.1182C366.155 91.1182 375.252 101.163 375.252 116.136V119.927H343.601C343.98 126.655 347.486 130.446 353.361 130.446C358.005 130.446 361.511 128.172 364.828 123.433L373.831 130.446C369.282 137.553 362.269 141.155 353.361 141.155C339.905 141.155 330.712 131.109 330.712 116.136Z" fill="black"/>
<path d="M379.516 92.4449H391.646V96.6146H391.836C394.584 93.203 399.607 91.1182 404.913 91.1182C415.243 91.1182 422.256 98.2256 422.256 109.503V139.733H409.462V111.682C409.462 106.091 406.43 102.869 400.933 102.869C395.532 102.869 392.404 106.281 392.404 111.682V139.733H379.611V92.4449H379.516Z" fill="black"/>
<path d="M426.711 129.688L450.781 104.29V104.101H427.28V92.4446H468.597V102.585L444.527 127.982V128.171H469.829V139.828H426.711V129.688Z" fill="black"/>
<path d="M499.491 123.812V116.894H499.302C498.544 118.316 496.554 119.358 492.289 120.685C486.603 122.201 484.613 123.623 484.613 126.087C484.613 128.93 486.603 130.351 490.394 130.351C495.796 130.446 499.491 127.698 499.491 123.812ZM472.388 126.94C472.388 118.979 477.127 114.715 489.257 111.777C496.743 109.977 499.112 108.65 499.112 106.186C499.112 103.438 496.743 101.827 492.574 101.827C487.646 101.827 484.424 104.575 483.571 109.408L471.915 106.849C473.336 97.4674 481.77 91.2129 492.668 91.2129C504.514 91.2129 512.001 98.1308 512.001 109.124V139.828H500.534V136.037H500.344C498.07 139.354 493.616 141.155 487.93 141.155C478.548 141.155 472.388 135.469 472.388 126.94Z" fill="black"/>
<path d="M123.363 165.889C122.226 165.889 121.278 164.941 121.278 163.804V50.0849C121.278 48.9477 122.226 48 123.363 48C124.5 48 125.448 48.9477 125.448 50.0849V163.804C125.448 164.941 124.5 165.889 123.363 165.889ZM74.0848 137.459C72.9477 137.459 72 136.511 72 135.374V78.5146C72 77.3774 72.9477 76.4298 74.0848 76.4298C75.222 76.4298 76.1697 77.3774 76.1697 78.5146V135.374C76.1697 136.511 75.222 137.459 74.0848 137.459Z" fill="black"/>
<path d="M172.642 139.638C170.273 139.638 168.377 137.743 168.377 135.374V78.5142C168.377 76.1451 170.273 74.2498 172.642 74.2498C175.011 74.2498 176.906 76.1451 176.906 78.5142V135.374C176.812 137.743 174.916 139.638 172.642 139.638Z" fill="#D10000"/>
<path d="M98.7239 154.897C95.7861 154.897 93.417 152.528 93.417 149.59V64.3005C93.417 61.3628 95.7861 58.9937 98.7239 58.9937C101.662 58.9937 104.031 61.3628 104.031 64.3005V149.59C104.031 152.528 101.662 154.897 98.7239 154.897Z" fill="#D10000"/>
<path d="M148.001 151.674C146.864 151.674 145.917 150.727 145.917 149.589V64.3002C145.917 63.163 146.864 62.2153 148.001 62.2153C149.139 62.2153 150.086 63.163 150.086 64.3002V149.589C150.086 150.727 149.139 151.674 148.001 151.674Z" fill="black"/>
</svg>
