<svg width="160" height="160" viewBox="0 0 160 160" fill="none" xmlns="http://www.w3.org/2000/svg">
<rect width="160" height="160" rx="16" fill="white"/>
<g clip-path="url(#clip0)">
<path d="M79.5691 130C78.6045 130 77.8006 129.196 77.8006 128.232V31.7685C77.8006 30.8039 78.6045 30 79.5691 30C80.5338 30 81.3376 30.8039 81.3376 31.7685V128.232C81.3376 129.196 80.5338 130 79.5691 130ZM37.7685 105.884C36.8039 105.884 36 105.08 36 104.116V55.8842C36 54.9196 36.8039 54.1158 37.7685 54.1158C38.7331 54.1158 39.537 54.9196 39.537 55.8842V104.116C39.537 105.08 38.7331 105.884 37.7685 105.884Z" fill="black"/>
<path d="M121.37 107.653C119.36 107.653 117.752 106.045 117.752 104.035V55.8039C117.752 53.7942 119.36 52.1865 121.37 52.1865C123.379 52.1865 124.987 53.7942 124.987 55.8039V104.035C124.907 106.045 123.299 107.653 121.37 107.653Z" fill="#D10000"/>
<path d="M58.6686 120.675C56.1766 120.675 54.167 118.666 54.167 116.174V43.8263C54.167 41.3344 56.1766 39.3247 58.6686 39.3247C61.1606 39.3247 63.1702 41.3344 63.1702 43.8263V116.174C63.1702 118.585 61.1606 120.675 58.6686 120.675Z" fill="#D10000"/>
<path d="M100.47 117.942C99.505 117.942 98.7012 117.138 98.7012 116.174V43.8264C98.7012 42.8617 99.505 42.0579 100.47 42.0579C101.434 42.0579 102.238 42.8617 102.238 43.8264V116.174C102.238 117.138 101.434 117.942 100.47 117.942Z" fill="black"/>
</g>
<defs>
<clipPath id="clip0">
<rect x="36" y="30" width="88.9871" height="100" fill="white"/>
</clipPath>
</defs>
</svg>
